<?xml version="1.0" standalone="no"?>
<!DOCTYPE svg PUBLIC "-//W3C//DTD SVG 20010904//EN"
 "http://www.w3.org/TR/2001/REC-SVG-20010904/DTD/svg10.dtd">
<svg version="1.0" xmlns="http://www.w3.org/2000/svg"
 width="271.000000pt" height="271.000000pt" viewBox="0 0 271.000000 271.000000"
 preserveAspectRatio="xMidYMid meet">
<metadata>
Created by potrace 1.14, written by Peter Selinger 2001-2017
</metadata>
<g transform="translate(0.000000,271.000000) scale(0.100000,-0.100000)"
fill="#000000" stroke="none">
<path d="M1682 2670 c-96 -25 -162 -62 -237 -131 l-60 -56 -110 -6 c-300 -17
-596 -154 -802 -371 -40 -42 -73 -81 -73 -86 0 -4 -4 -10 -9 -12 -4 -1 -29
-34 -55 -73 -221 -331 -265 -768 -114 -1141 183 -455 626 -755 1117 -757 319
-1 615 122 846 349 122 120 234 294 287 444 56 159 70 247 71 435 1 154 -2
180 -27 278 -38 148 -94 279 -172 394 -20 30 -21 35 -8 85 30 115 10 271 -49
382 -43 82 -149 186 -229 225 -129 63 -244 75 -376 41z m263 -91 c126 -39 223
-126 281 -252 40 -88 50 -220 23 -307 -11 -35 -66 -140 -78 -150 -4 -3 -22
-25 -41 -50 -19 -25 -39 -50 -45 -56 -5 -7 -19 -24 -30 -39 -32 -44 -215 -279
-229 -293 -13 -13 -44 23 -216 248 -14 18 -59 77 -102 131 -154 199 -181 351
-93 537 93 198 319 296 530 231z m-628 -226 c-9 -21 -20 -54 -26 -73 -10 -32
-14 -35 -52 -37 -120 -7 -300 -70 -418 -147 -87 -56 -101 -67 -178 -146 -189
-193 -287 -446 -278 -720 2 -63 7 -128 10 -145 44 -215 148 -407 298 -549 247
-232 594 -323 907 -237 280 77 506 262 633 516 76 154 107 292 102 465 -5 161
-36 294 -99 418 l-26 52 40 51 c22 28 40 55 40 60 0 30 24 -4 69 -93 91 -187
120 -318 116 -528 -3 -145 -13 -212 -51 -330 -91 -289 -301 -534 -569 -665
-96 -47 -217 -90 -280 -99 -157 -23 -223 -26 -330 -14 -252 27 -487 139 -665
318 -143 143 -240 306 -293 490 -34 116 -38 145 -42 295 -7 268 67 499 233
720 159 212 434 381 687 421 57 9 179 20 184 17 2 -2 -3 -20 -12 -40z m-40
-240 c8 -129 50 -222 170 -374 37 -47 79 -101 93 -120 14 -18 32 -40 40 -49 8
-8 33 -40 55 -70 22 -30 44 -60 50 -66 5 -6 23 -27 39 -47 31 -39 70 -59 101
-53 11 3 23 5 26 5 15 2 63 54 138 151 46 58 97 123 114 144 l32 39 26 -59
c49 -109 63 -186 64 -344 0 -160 -4 -188 -41 -298 -124 -369 -459 -613 -841
-612 -403 1 -740 259 -859 657 -33 110 -41 309 -18 413 20 89 21 90 37 136
103 284 354 507 651 574 112 26 119 24 123 -27z"/>
<path d="M1723 2404 c-68 -28 -105 -62 -138 -128 -43 -85 -31 -190 28 -268 85
-112 250 -129 365 -39 18 14 46 52 62 84 105 209 -102 438 -317 351z m175 -93
c12 -6 34 -28 49 -48 24 -31 28 -46 28 -99 0 -48 -5 -69 -21 -91 -73 -99 -205
-99 -277 -1 -27 36 -34 125 -14 164 47 89 148 122 235 75z"/>
<path d="M913 1709 c-17 -6 -23 -16 -23 -37 0 -15 4 -32 9 -37 4 -6 34 -59 66
-120 32 -60 85 -162 118 -225 81 -155 105 -189 152 -214 534 -294 537 -295
551 -242 5 22 -4 40 -121 261 -23 44 -70 132 -104 197 -34 64 -67 120 -74 126
-12 10 -437 242 -512 279 -28 15 -47 18 -62 12z m370 -278 c53 -29 97 -56 97
-60 0 -3 -36 -42 -80 -86 -44 -44 -80 -75 -80 -69 0 10 -28 64 -146 283 l-35
63 73 -39 c40 -22 117 -64 171 -92z m262 -297 c48 -91 85 -167 83 -168 -3 -3
-315 168 -326 178 -6 7 137 156 150 156 3 0 46 -75 93 -166z"/>
</g>
</svg>
